<?xml version="1.0" standalone="no"?>
<!DOCTYPE svg PUBLIC "-//W3C//DTD SVG 20010904//EN"
 "http://www.w3.org/TR/2001/REC-SVG-20010904/DTD/svg10.dtd">
<svg version="1.0" xmlns="http://www.w3.org/2000/svg"
 width="852.000000pt" height="480.000000pt" viewBox="0 0 852.000000 480.000000"
 preserveAspectRatio="xMidYMid meet">

<g transform="translate(0.000000,480.000000) scale(0.100000,-0.100000)"
fill="#000000" stroke="none">
<path d="M4042 4515 c-477 -87 -844 -457 -928 -936 -23 -131 -14 -336 19 -479
78 -329 259 -693 624 -1255 226 -348 474 -720 481 -722 7 -3 256 370 506 757
382 591 571 995 621 1326 56 375 -61 734 -324 994 -174 172 -396 285 -628 319
-96 15 -280 12 -371 -4z m460 -43 c103 -28 199 -67 281 -114 70 -41 73 -44 57
-68 -8 -13 -18 -10 -68 17 -306 167 -657 182 -974 42 -122 -53 -127 -55 -134
-35 -8 21 11 37 101 80 88 42 186 74 278 92 106 20 359 12 459 -14z m-127
-791 c216 -102 257 -384 79 -540 -64 -57 -117 -76 -214 -76 -73 0 -93 4 -141
28 -67 32 -132 99 -162 165 -30 67 -30 189 0 255 59 127 164 196 303 196 62 1
85 -4 135 -28z m-299 -638 c47 -21 78 -28 150 -31 79 -4 98 -1 155 22 36 14
71 26 78 26 28 0 2 -27 -54 -55 -55 -28 -68 -30 -165 -30 -99 0 -109 2 -173
33 -37 18 -67 40 -67 48 0 19 9 18 76 -13z"/>
</g>
</svg>
